<mxfile host="drawio-plugin" modified="2023-03-13T23:06:30.365Z" agent="5.0 (Windows NT 6.2; Win64; x64) AppleWebKit/537.36 (KHTML, like Gecko) Chrome/89.0.4389.114 Safari/537.36" etag="4Bin06KO1N-IWnRWne7k" version="20.5.3" type="embed"><diagram id="23iRSUPoRavnBvh4doch" name="Page-1"><mxGraphModel dx="631" dy="1623" grid="1" gridSize="10" guides="1" tooltips="1" connect="1" arrows="1" fold="1" page="1" pageScale="1" pageWidth="827" pageHeight="1169" math="0" shadow="0"><root><mxCell id="0"/><mxCell id="1" parent="0"/><mxCell id="6" value="Main" style="swimlane;fontStyle=0;childLayout=stackLayout;horizontal=1;startSize=30;horizontalStack=0;resizeParent=1;resizeParentMax=0;resizeLast=0;collapsible=1;marginBottom=0;whiteSpace=wrap;html=1;fillColor=#008a00;strokeColor=#005700;fontColor=#ffffff;" vertex="1" parent="1"><mxGeometry x="320" y="-220" width="350" height="90" as="geometry"><mxRectangle x="360" y="110" width="70" height="30" as="alternateBounds"/></mxGeometry></mxCell><mxCell id="7" value="&lt;pre style=&quot;background-color: rgb(43, 43, 43); color: rgb(169, 183, 198); font-family: &amp;quot;JetBrains Mono&amp;quot;, monospace;&quot;&gt;ExecutaTelas executaTelas = &lt;span style=&quot;color: rgb(204, 120, 50);&quot;&gt;new &lt;/span&gt;ExecutaTelas()&lt;span style=&quot;color: rgb(204, 120, 50);&quot;&gt;;&lt;br style=&quot;font-size: 11px;&quot;&gt;&lt;/span&gt;&lt;/pre&gt;" style="text;strokeColor=#432D57;fillColor=#76608a;align=center;verticalAlign=middle;spacingLeft=4;spacingRight=4;overflow=hidden;points=[[0,0.5],[1,0.5]];portConstraint=eastwest;rotatable=0;whiteSpace=wrap;html=1;fontColor=#ffffff;fontSize=11;" vertex="1" parent="6"><mxGeometry y="30" width="350" height="30" as="geometry"/></mxCell><mxCell id="8" value="&lt;pre style=&quot;text-align: left; background-color: rgb(43, 43, 43); color: rgb(169, 183, 198); font-family: &amp;quot;JetBrains Mono&amp;quot;, monospace; font-size: 11px;&quot;&gt;CriaDespesas aplicarDespesas = &lt;span style=&quot;color: rgb(204, 120, 50); font-size: 11px;&quot;&gt;new &lt;/span&gt;CriaDespesas()&lt;span style=&quot;color: rgb(204, 120, 50); font-size: 11px;&quot;&gt;;&lt;br style=&quot;font-size: 11px;&quot;&gt;&lt;/span&gt;&lt;/pre&gt;" style="text;fillColor=#76608a;align=center;verticalAlign=middle;spacingLeft=2;spacingRight=0;overflow=hidden;points=[[0,0.5],[1,0.5]];portConstraint=eastwest;rotatable=0;whiteSpace=wrap;html=1;fontColor=#ffffff;strokeColor=#432D57;spacingBottom=0;fontSize=11;fontStyle=0" vertex="1" parent="6"><mxGeometry y="60" width="350" height="30" as="geometry"/></mxCell><mxCell id="36" style="edgeStyle=orthogonalEdgeStyle;rounded=0;orthogonalLoop=1;jettySize=auto;html=1;exitX=0.5;exitY=0;exitDx=0;exitDy=0;entryX=0.5;entryY=1;entryDx=0;entryDy=0;fontFamily=Helvetica;fontSize=14;fontColor=#000000;" edge="1" parent="1" source="21" target="6"><mxGeometry relative="1" as="geometry"><Array as="points"><mxPoint x="270" y="50"/><mxPoint x="495" y="50"/></Array></mxGeometry></mxCell><mxCell id="21" value="ExecutaTelas" style="swimlane;fontStyle=0;childLayout=stackLayout;horizontal=1;startSize=30;horizontalStack=0;resizeParent=1;resizeParentMax=0;resizeLast=0;collapsible=1;marginBottom=0;whiteSpace=wrap;html=1;fontSize=14;fillColor=#008a00;fontColor=#ffffff;strokeColor=#005700;" vertex="1" parent="1"><mxGeometry x="110" y="100" width="320" height="890" as="geometry"/></mxCell><mxCell id="22" value="&lt;pre style=&quot;font-family: &amp;quot;JetBrains Mono&amp;quot;, monospace; font-size: 14px;&quot;&gt;&lt;b&gt;&lt;span style=&quot;background-color: rgb(255, 255, 255); font-size: 14px;&quot;&gt;+&lt;span style=&quot;font-style: italic; font-size: 14px;&quot;&gt;frameTelaMenuAdm (str):&lt;/span&gt;&lt;/span&gt;JFrame &lt;span style=&quot;background-color: rgb(255, 255, 255); font-size: 14px;&quot;&gt;&lt;span style=&quot;font-style: italic; font-size: 14px;&quot;&gt;&lt;br&gt;&lt;/span&gt;&lt;/span&gt;&lt;span style=&quot;background-color: rgb(255, 255, 255); font-size: 14px;&quot;&gt;&lt;br style=&quot;font-size: 14px;&quot;&gt;+&lt;span style=&quot;font-style: italic; font-size: 14px;&quot;&gt;frameTelaRegistro (str):&lt;/span&gt;&lt;/span&gt;JFrame &lt;span style=&quot;background-color: rgb(255, 255, 255); font-size: 14px;&quot;&gt;&lt;span style=&quot;font-style: italic; font-size: 14px;&quot;&gt;&lt;br&gt;&lt;/span&gt;&lt;/span&gt;&lt;span style=&quot;background-color: rgb(255, 255, 255); font-size: 14px;&quot;&gt;&lt;br style=&quot;font-size: 14px;&quot;&gt;&lt;span style=&quot;font-style: italic; font-size: 14px;&quot;&gt;+frameTelaLogin &lt;/span&gt;&lt;/span&gt;&lt;span style=&quot;font-style: italic;&quot;&gt;(str):&lt;/span&gt;&lt;span style=&quot;background-color: initial;&quot;&gt;JFrame&lt;/span&gt;&lt;span style=&quot;background-color: rgb(255, 255, 255); font-size: 14px;&quot;&gt;&lt;span style=&quot;font-style: italic; font-size: 14px;&quot;&gt;&lt;br&gt;&lt;/span&gt;&lt;/span&gt;&lt;span style=&quot;background-color: rgb(255, 255, 255); font-size: 14px;&quot;&gt;&lt;br style=&quot;font-size: 14px;&quot;&gt;+&lt;span style=&quot;font-style: italic; font-size: 14px;&quot;&gt;frameTelaFazerPedido &lt;/span&gt;&lt;/span&gt;&lt;span style=&quot;font-style: italic;&quot;&gt;(str):&lt;/span&gt;&lt;span style=&quot;background-color: initial;&quot;&gt;JFrame&lt;/span&gt;&lt;span style=&quot;background-color: rgb(255, 255, 255); font-size: 14px;&quot;&gt;&lt;span style=&quot;font-style: italic; font-size: 14px;&quot;&gt;&lt;br&gt;&lt;/span&gt;&lt;/span&gt;&lt;span style=&quot;background-color: rgb(255, 255, 255); font-size: 14px;&quot;&gt;&lt;br style=&quot;font-size: 14px;&quot;&gt;+&lt;span style=&quot;font-style: italic; font-size: 14px;&quot;&gt;frameTelaCardapio &lt;/span&gt;&lt;/span&gt;&lt;span style=&quot;font-style: italic;&quot;&gt;(str):&lt;/span&gt;&lt;span style=&quot;background-color: initial;&quot;&gt;JFrame&lt;/span&gt;&lt;span style=&quot;background-color: rgb(255, 255, 255); font-size: 14px;&quot;&gt;&lt;span style=&quot;font-style: italic; font-size: 14px;&quot;&gt;&lt;br&gt;&lt;/span&gt;&lt;/span&gt;&lt;span style=&quot;background-color: rgb(255, 255, 255); font-size: 14px;&quot;&gt;&lt;br style=&quot;font-size: 14px;&quot;&gt;+&lt;span style=&quot;font-style: italic; font-size: 14px;&quot;&gt;frameTelaAvaliacoes &lt;/span&gt;&lt;/span&gt;&lt;span style=&quot;font-style: italic;&quot;&gt;(str):&lt;/span&gt;&lt;span style=&quot;background-color: initial;&quot;&gt;JFrame&lt;/span&gt;&lt;span style=&quot;background-color: rgb(255, 255, 255); font-size: 14px;&quot;&gt;&lt;span style=&quot;font-style: italic; font-size: 14px;&quot;&gt;&lt;br&gt;&lt;/span&gt;&lt;/span&gt;&lt;span style=&quot;background-color: rgb(255, 255, 255); font-size: 14px;&quot;&gt;&lt;br style=&quot;font-size: 14px;&quot;&gt;+&lt;span style=&quot;font-style: italic; font-size: 14px;&quot;&gt;frameTelaContabil &lt;/span&gt;&lt;/span&gt;&lt;span style=&quot;font-style: italic;&quot;&gt;(str):&lt;/span&gt;&lt;span style=&quot;background-color: initial;&quot;&gt;JFrame&lt;/span&gt;&lt;span style=&quot;background-color: rgb(255, 255, 255); font-size: 14px;&quot;&gt;&lt;span style=&quot;font-style: italic; font-size: 14px;&quot;&gt;&lt;br&gt;&lt;/span&gt;&lt;/span&gt;&lt;span style=&quot;background-color: rgb(255, 255, 255); font-size: 14px;&quot;&gt;&lt;br style=&quot;font-size: 14px;&quot;&gt;+&lt;span style=&quot;font-style: italic; font-size: 14px;&quot;&gt;FrameTelaRelatorio &lt;/span&gt;&lt;/span&gt;&lt;span style=&quot;font-style: italic;&quot;&gt;(str):&lt;/span&gt;&lt;span style=&quot;background-color: initial;&quot;&gt;JFrame&lt;/span&gt;&lt;span style=&quot;background-color: rgb(255, 255, 255); font-size: 14px;&quot;&gt;&lt;span style=&quot;font-style: italic; font-size: 14px;&quot;&gt;&lt;br&gt;&lt;/span&gt;&lt;/span&gt;&lt;span style=&quot;background-color: rgb(255, 255, 255); font-size: 14px;&quot;&gt;&lt;br style=&quot;font-size: 14px;&quot;&gt;+&lt;span style=&quot;font-style: italic; font-size: 14px;&quot;&gt;FrameTelaDespesas &lt;/span&gt;&lt;/span&gt;&lt;span style=&quot;font-style: italic;&quot;&gt;(str):&lt;/span&gt;&lt;span style=&quot;background-color: initial;&quot;&gt;JFrame&lt;/span&gt;&lt;span style=&quot;background-color: rgb(255, 255, 255); font-size: 14px;&quot;&gt;&lt;span style=&quot;font-style: italic; font-size: 14px;&quot;&gt;&lt;br&gt;&lt;/span&gt;&lt;/span&gt;&lt;span style=&quot;background-color: rgb(255, 255, 255); font-size: 14px;&quot;&gt;&lt;br style=&quot;font-size: 14px;&quot;&gt;+&lt;span style=&quot;font-style: italic; font-size: 14px;&quot;&gt;frameTelaInformacoesPrato &lt;/span&gt;&lt;/span&gt;&lt;span style=&quot;font-style: italic;&quot;&gt;(str):&lt;/span&gt;&lt;span style=&quot;background-color: initial;&quot;&gt;JFrame&lt;/span&gt;&lt;span style=&quot;background-color: rgb(255, 255, 255); font-size: 14px;&quot;&gt;&lt;span style=&quot;font-style: italic; font-size: 14px;&quot;&gt;&lt;br&gt;&lt;/span&gt;&lt;/span&gt;&lt;span style=&quot;background-color: rgb(255, 255, 255); font-size: 14px;&quot;&gt;&lt;br style=&quot;font-size: 14px;&quot;&gt;+&lt;span style=&quot;font-style: italic; font-size: 14px;&quot;&gt;FrameTelaReceita &lt;/span&gt;&lt;/span&gt;&lt;span style=&quot;font-style: italic;&quot;&gt;(str):&lt;/span&gt;&lt;span style=&quot;background-color: initial;&quot;&gt;JFrame&lt;/span&gt;&lt;span style=&quot;background-color: rgb(255, 255, 255); font-size: 14px;&quot;&gt;&lt;span style=&quot;font-style: italic; font-size: 14px;&quot;&gt;&lt;br&gt;&lt;/span&gt;&lt;/span&gt;&lt;span style=&quot;background-color: rgb(255, 255, 255); font-size: 14px;&quot;&gt;&lt;br style=&quot;font-size: 14px;&quot;&gt;-URL:&lt;span style=&quot;font-style: italic; font-size: 14px;&quot;&gt;url&lt;/span&gt;;&lt;/span&gt;&lt;/b&gt;&lt;/pre&gt;&lt;pre style=&quot;font-family: &amp;quot;JetBrains Mono&amp;quot;, monospace; font-size: 14px;&quot;&gt;&lt;span style=&quot;background-color: rgb(255, 255, 255); font-size: 14px;&quot;&gt;&lt;b&gt;&lt;br style=&quot;font-size: 14px;&quot;&gt;&lt;span style=&quot;font-style: italic; font-size: 14px;&quot;&gt;-dim : dimension&lt;/span&gt;&lt;/b&gt;&lt;/span&gt;&lt;/pre&gt;" style="text;strokeColor=default;fillColor=#FFFFFF;align=left;verticalAlign=middle;spacingLeft=4;spacingRight=4;overflow=hidden;points=[[0,0.5],[1,0.5]];portConstraint=eastwest;rotatable=0;whiteSpace=wrap;html=1;fontSize=14;labelBorderColor=none;" vertex="1" parent="21"><mxGeometry y="30" width="320" height="460" as="geometry"/></mxCell><mxCell id="23" value="&lt;pre style=&quot;&quot;&gt;&lt;font face=&quot;Helvetica&quot;&gt;&lt;b&gt;+iniciarTelaAdmin(): void&lt;/b&gt;&lt;/font&gt;&lt;/pre&gt;&lt;pre style=&quot;line-height: 100%;&quot;&gt;&lt;font face=&quot;Helvetica&quot;&gt;&lt;b&gt;+iniciarTelaRegistro(): void&lt;/b&gt;&lt;/font&gt;&lt;/pre&gt;&lt;pre style=&quot;line-height: 100%;&quot;&gt;&lt;font face=&quot;Helvetica&quot;&gt;&lt;b&gt;+inciarTelaLogin(): void&lt;/b&gt;&lt;/font&gt;&lt;/pre&gt;&lt;div&gt;&lt;b&gt;+inciarTelaFazerPedido : void&lt;/b&gt;&lt;/div&gt;&lt;div&gt;&lt;b&gt;&lt;br&gt;&lt;/b&gt;&lt;/div&gt;&lt;div&gt;&lt;b&gt;+iniciarTelaCriarCardapio: void&lt;/b&gt;&lt;/div&gt;&lt;div&gt;&lt;b&gt;&lt;br&gt;&lt;/b&gt;&lt;/div&gt;&lt;div&gt;&lt;b&gt;+inicarTelaAvaliacoes: void&lt;/b&gt;&lt;/div&gt;&lt;div&gt;&lt;b&gt;&lt;br&gt;&lt;/b&gt;&lt;/div&gt;&lt;div&gt;&lt;b&gt;+inicarTelaContabil: void&lt;/b&gt;&lt;/div&gt;&lt;div&gt;&lt;b&gt;&lt;br&gt;&lt;/b&gt;&lt;/div&gt;&lt;div&gt;&lt;b&gt;+inicarTelaRelatorio: void&lt;/b&gt;&lt;/div&gt;&lt;div&gt;&lt;b&gt;&lt;br&gt;&lt;/b&gt;&lt;/div&gt;&lt;div&gt;&lt;b&gt;+iniciarTelaReceita: void&lt;/b&gt;&lt;/div&gt;&lt;div&gt;&lt;b&gt;&lt;br&gt;&lt;/b&gt;&lt;/div&gt;&lt;div&gt;&lt;b&gt;+iniciarTelaDespesas: void&lt;/b&gt;&lt;/div&gt;&lt;div&gt;&lt;b&gt;&lt;br&gt;&lt;/b&gt;&lt;/div&gt;&lt;div&gt;&lt;b&gt;+inicarTelaInformacoesPedido: void&lt;/b&gt;&lt;/div&gt;&lt;div&gt;&lt;b&gt;&lt;br&gt;&lt;/b&gt;&lt;/div&gt;&lt;div&gt;&lt;b&gt;-iconeAplicativo: void&lt;/b&gt;&lt;/div&gt;" style="text;strokeColor=default;fillColor=default;align=left;verticalAlign=middle;spacingLeft=4;spacingRight=4;overflow=hidden;points=[[0,0.5],[1,0.5]];portConstraint=eastwest;rotatable=0;whiteSpace=wrap;html=1;fontSize=14;labelBackgroundColor=none;fontColor=#000000;labelBorderColor=none;" vertex="1" parent="21"><mxGeometry y="490" width="320" height="400" as="geometry"/></mxCell><mxCell id="38" value="AdminDAO" style="swimlane;fontStyle=0;childLayout=stackLayout;horizontal=1;startSize=30;horizontalStack=0;resizeParent=1;resizeParentMax=0;resizeLast=0;collapsible=1;marginBottom=0;whiteSpace=wrap;html=1;labelBackgroundColor=none;labelBorderColor=none;strokeColor=#005700;fontFamily=Helvetica;fontSize=14;fontColor=#ffffff;fillColor=#008a00;" vertex="1" parent="1"><mxGeometry x="680" y="270" width="250" height="90" as="geometry"/></mxCell><mxCell id="39" value="&lt;b&gt;+getAdminPKG: list&amp;lt;AdminPKG&amp;gt;&lt;/b&gt;" style="text;strokeColor=default;fillColor=none;align=left;verticalAlign=middle;spacingLeft=4;spacingRight=4;overflow=hidden;points=[[0,0.5],[1,0.5]];portConstraint=eastwest;rotatable=0;whiteSpace=wrap;html=1;labelBackgroundColor=none;labelBorderColor=none;fontFamily=Helvetica;fontSize=14;fontColor=#000000;" vertex="1" parent="38"><mxGeometry y="30" width="250" height="60" as="geometry"/></mxCell><mxCell id="42" value="ClienteDAO" style="swimlane;fontStyle=0;childLayout=stackLayout;horizontal=1;startSize=30;horizontalStack=0;resizeParent=1;resizeParentMax=0;resizeLast=0;collapsible=1;marginBottom=0;whiteSpace=wrap;html=1;labelBackgroundColor=none;labelBorderColor=none;strokeColor=#005700;fontFamily=Helvetica;fontSize=14;fontColor=#ffffff;fillColor=#008a00;" vertex="1" parent="1"><mxGeometry x="680" y="610" width="250" height="130" as="geometry"/></mxCell><mxCell id="43" value="&lt;b&gt;+save: void&lt;br&gt;&lt;br&gt;+getClientes: list&amp;lt;Clientes&amp;gt;&lt;/b&gt;" style="text;strokeColor=default;fillColor=none;align=left;verticalAlign=middle;spacingLeft=4;spacingRight=4;overflow=hidden;points=[[0,0.5],[1,0.5]];portConstraint=eastwest;rotatable=0;whiteSpace=wrap;html=1;labelBackgroundColor=none;labelBorderColor=none;fontFamily=Helvetica;fontSize=14;fontColor=#000000;" vertex="1" parent="42"><mxGeometry y="30" width="250" height="100" as="geometry"/></mxCell><mxCell id="44" value="CardapioDAO" style="swimlane;fontStyle=0;childLayout=stackLayout;horizontal=1;startSize=30;horizontalStack=0;resizeParent=1;resizeParentMax=0;resizeLast=0;collapsible=1;marginBottom=0;whiteSpace=wrap;html=1;labelBackgroundColor=none;labelBorderColor=none;strokeColor=#005700;fontFamily=Helvetica;fontSize=14;fontColor=#ffffff;fillColor=#008a00;" vertex="1" parent="1"><mxGeometry x="680" y="420" width="240" height="130" as="geometry"/></mxCell><mxCell id="45" value="&lt;b&gt;+save: void&lt;br&gt;&lt;br&gt;+getCardapio: list&amp;lt;Cardapio&amp;gt;&lt;/b&gt;" style="text;strokeColor=default;fillColor=none;align=left;verticalAlign=middle;spacingLeft=4;spacingRight=4;overflow=hidden;points=[[0,0.5],[1,0.5]];portConstraint=eastwest;rotatable=0;whiteSpace=wrap;html=1;labelBackgroundColor=none;labelBorderColor=none;fontFamily=Helvetica;fontSize=14;fontColor=#000000;" vertex="1" parent="44"><mxGeometry y="30" width="240" height="100" as="geometry"/></mxCell><mxCell id="46" value="ContabilDAO" style="swimlane;fontStyle=0;childLayout=stackLayout;horizontal=1;startSize=30;horizontalStack=0;resizeParent=1;resizeParentMax=0;resizeLast=0;collapsible=1;marginBottom=0;whiteSpace=wrap;html=1;labelBackgroundColor=none;labelBorderColor=none;strokeColor=#005700;fontFamily=Helvetica;fontSize=14;fontColor=#ffffff;fillColor=#008a00;" vertex="1" parent="1"><mxGeometry x="680" y="780" width="240" height="130" as="geometry"/></mxCell><mxCell id="47" value="&lt;b&gt;+save: void&lt;br&gt;&lt;br&gt;+getRelatorio: list&amp;lt;contabilPKG&amp;gt;&lt;/b&gt;" style="text;strokeColor=default;fillColor=none;align=left;verticalAlign=middle;spacingLeft=4;spacingRight=4;overflow=hidden;points=[[0,0.5],[1,0.5]];portConstraint=eastwest;rotatable=0;whiteSpace=wrap;html=1;labelBackgroundColor=none;labelBorderColor=none;fontFamily=Helvetica;fontSize=14;fontColor=#000000;" vertex="1" parent="46"><mxGeometry y="30" width="240" height="100" as="geometry"/></mxCell><mxCell id="48" value="PedidoDAO" style="swimlane;fontStyle=0;childLayout=stackLayout;horizontal=1;startSize=30;horizontalStack=0;resizeParent=1;resizeParentMax=0;resizeLast=0;collapsible=1;marginBottom=0;whiteSpace=wrap;html=1;labelBackgroundColor=none;labelBorderColor=none;strokeColor=#005700;fontFamily=Helvetica;fontSize=14;fontColor=#ffffff;fillColor=#008a00;" vertex="1" parent="1"><mxGeometry x="680" y="950" width="240" height="80" as="geometry"/></mxCell><mxCell id="49" value="&lt;b&gt;+idClienteAtual: str&lt;/b&gt;" style="text;strokeColor=default;fillColor=none;align=left;verticalAlign=middle;spacingLeft=4;spacingRight=4;overflow=hidden;points=[[0,0.5],[1,0.5]];portConstraint=eastwest;rotatable=0;whiteSpace=wrap;html=1;labelBackgroundColor=none;labelBorderColor=none;fontFamily=Helvetica;fontSize=14;fontColor=#000000;" vertex="1" parent="48"><mxGeometry y="30" width="240" height="50" as="geometry"/></mxCell><mxCell id="55" value="&lt;b&gt;+save: void&lt;br&gt;&lt;/b&gt;" style="text;strokeColor=default;fillColor=none;align=left;verticalAlign=middle;spacingLeft=4;spacingRight=4;overflow=hidden;points=[[0,0.5],[1,0.5]];portConstraint=eastwest;rotatable=0;whiteSpace=wrap;html=1;labelBackgroundColor=none;labelBorderColor=none;fontFamily=Helvetica;fontSize=14;fontColor=#000000;" vertex="1" parent="1"><mxGeometry x="680" y="1030" width="240" height="50" as="geometry"/></mxCell></root></mxGraphModel></diagram></mxfile>